<svg width="51" height="51" viewBox="0 0 51 51" fill="none" xmlns="http://www.w3.org/2000/svg">
<path d="M9.48118 21.5383C10.4773 17.8206 12.7317 14.5633 15.8603 12.3215C18.9888 10.0796 22.7979 8.99185 26.6385 9.24357C30.4791 9.4953 34.1136 11.0709 36.9227 13.702C39.7318 16.333 41.5418 19.8567 42.0442 23.6726" stroke="black" stroke-width="2.08134" stroke-linejoin="round"/>
<path d="M8.91439 21.6851L7.90918 21.9545C8.05793 22.5096 8.62857 22.8391 9.18373 22.6903L8.91439 21.6851ZM5.75631 13.9199L7.90918 21.9545L9.9196 21.4158L7.76673 13.3812L5.75631 13.9199ZM9.18373 22.6903L17.2183 20.5375L16.6797 18.5271L8.64504 20.6799L9.18373 22.6903Z" fill="black"/>
<path d="M41.6196 30.1497C40.6234 33.8674 38.369 37.1247 35.2405 39.3665C32.112 41.6084 28.3029 42.6961 24.4623 42.4444C20.6217 42.1927 16.9872 40.6171 14.1781 37.986C11.3689 35.355 9.55899 31.8313 9.05661 28.0154" stroke="black" stroke-width="2.08134" stroke-linejoin="round"/>
<path d="M42.1864 30.0029L43.1916 29.7336C43.0428 29.1784 42.4722 28.849 41.917 28.9977L42.1864 30.0029ZM45.3445 37.7682L43.1916 29.7336L41.1812 30.2723L43.3341 38.3069L45.3445 37.7682ZM41.917 28.9977L33.8824 31.1506L34.4211 33.161L42.4557 31.0081L41.917 28.9977Z" fill="black"/>
</svg>
